<svg aria-hidden="true" style="position: absolute; width: 0; height: 0; overflow: hidden;" version="1.1" xmlns="http://www.w3.org/2000/svg" xmlns:xlink="http://www.w3.org/1999/xlink">
<defs>
<symbol id="icon-logo" viewBox="0 0 32 32">
<path d="M29.082 0.314h-4.009c-1.237 0-2.24 0.983-2.24 2.195v3.929c0 1.212 1.003 2.195 2.24 2.195h4.009c1.237 0 2.24-0.983 2.24-2.195v-3.929c0-1.212-1.003-2.195-2.24-2.195z"></path>
<path d="M6.73 23.040h-4.318c-1.332 0-2.412 0.983-2.412 2.195v3.929c0 1.213 1.080 2.195 2.412 2.195h4.318c1.332 0 2.412-0.983 2.412-2.195v-3.929c0-1.212-1.080-2.195-2.412-2.195z"></path>
<path d="M6.25 11.582h-4.009c-1.237 0-2.24 0.983-2.24 2.195v3.929c0 1.212 1.003 2.195 2.24 2.195h4.009c1.237 0 2.24-0.983 2.24-2.195v-3.929c0-1.212-1.003-2.195-2.24-2.195z"></path>
<path d="M17.766 22.978h-4.009c-1.237 0-2.24 0.983-2.24 2.195l-0 3.929c0 1.212 1.003 2.195 2.241 2.195h4.009c1.237 0 2.24-0.983 2.24-2.195v-3.929c0-1.212-1.003-2.195-2.24-2.195z"></path>
<path d="M6.25 0.086h-4.009c-1.237 0-2.24 0.983-2.24 2.195v3.929c0 1.212 1.003 2.195 2.24 2.195h4.009c1.237 0 2.24-0.983 2.24-2.195v-3.929c0-1.212-1.003-2.195-2.24-2.195z"></path>
<path d="M18.076 11.697h-4.009c-1.237 0-2.24 0.983-2.24 2.195v3.929c0 1.212 1.003 2.195 2.24 2.195h4.009c1.237 0 2.24-0.983 2.24-2.195v-3.929c0-1.212-1.003-2.195-2.24-2.195z"></path>
<path d="M29.333 22.978h-4.010c-1.237 0-2.24 0.983-2.24 2.195v3.929c0 1.212 1.003 2.195 2.24 2.195h4.009c1.237 0 2.24-0.983 2.24-2.195v-3.929c0-1.212-1.003-2.195-2.24-2.195z"></path>
<path d="M17.591 0.224h-4.009c-1.237 0-2.24 0.983-2.24 2.195v3.929c0 1.212 1.003 2.195 2.24 2.195h4.009c1.237 0 2.24-0.984 2.24-2.196v-3.929c0-1.212-1.003-2.195-2.24-2.195z"></path>
<path d="M29.044 11.926h-4.010c-1.237 0-2.24 0.983-2.24 2.195v3.929c0 1.212 1.003 2.195 2.24 2.195h4.009c1.237 0 2.24-0.983 2.24-2.195v-3.929c0-1.212-1.003-2.195-2.24-2.195z"></path>
</symbol>
</defs>
</svg>
