<!-- Generated by IcoMoon.io -->
<svg version="1.1" xmlns="http://www.w3.org/2000/svg" width="32" height="32" viewBox="0 0 32 32">
<title>close</title>
<path d="M23.293 7.293l-16 16c-0.181 0.181-0.293 0.431-0.293 0.707s0.112 0.526 0.293 0.707v0c0.181 0.181 0.431 0.293 0.707 0.293s0.526-0.112 0.707-0.293l16-16c0.181-0.181 0.293-0.431 0.293-0.707s-0.112-0.526-0.293-0.707v0c-0.181-0.181-0.431-0.293-0.707-0.293s-0.526 0.112-0.707 0.293v0z"></path>
<path d="M8 7c-0.276 0-0.526 0.112-0.707 0.293v0c-0.181 0.181-0.293 0.431-0.293 0.707s0.112 0.526 0.293 0.707l16 16c0.181 0.181 0.431 0.293 0.707 0.293s0.526-0.112 0.707-0.293v0c0.181-0.181 0.293-0.431 0.293-0.707s-0.112-0.526-0.293-0.707l-16-16c-0.181-0.181-0.431-0.293-0.707-0.293v0z"></path>
</svg>
